# xmcd CD database file
#
# Track frame offsets:
#	150
#	21310
#	45110
#	66270
#
# Disc length: 1199 seconds
#
# Revision: 0
# Processed by: cddbd v1.5.1PL0 Copyright (c) Steve Scherf et al.
# Submitted via: CDex 1.51
#
DISCID=2a04ad04
DTITLE=COOLON - Days/KAGEROU
DYEAR=2005
DGENRE=Hip-Hop
TTITLE0=Days
TTITLE1=KAGEROU
TTITLE2=Days(instrumental)
TTITLE3=KAAGEROU(instrumental)
EXTD=YEAR: 2005
EXTT0=
EXTT1=
EXTT2=
EXTT3=
PLAYORDER=
